<svg width="33" height="32" viewBox="0 0 33 32" fill="none" xmlns="http://www.w3.org/2000/svg">
<path d="M0.184683 12.6341C0.24015 12.5559 0.259111 12.518 0.411294 12.4152M0.233657 12.6357C0.25439 12.5849 0.289862 12.5358 0.383085 12.442M0.559387 12.7445C0.67323 12.5982 0.713492 12.4545 0.847111 12.446M0.507648 12.7243C0.644629 12.6191 0.767643 12.5373 0.793271 12.4573M0.613929 13.0293C0.879749 12.8534 0.929633 12.7853 1.30871 12.3134M0.758949 12.9334C0.886431 12.814 1.02612 12.6609 1.20796 12.4693M0.830299 13.2331C0.968532 12.8163 1.2486 12.8504 1.67257 12.2373M1.01693 13.0981C1.16155 12.9797 1.35743 12.8046 1.68762 12.5098M1.05757 13.2597C1.59617 13.1275 1.70381 12.8319 1.77529 12.5108M1.27383 13.2383C1.52525 13.0237 1.6648 12.8426 1.98154 12.4482M1.47283 13.7565C1.86739 13.1717 1.85974 12.8693 2.67963 12.1843M1.3313 13.6286C1.56955 13.3549 1.94395 13.0603 2.49029 12.5118M1.7894 13.5275C1.82713 13.4168 2.41742 13.0699 2.75612 12.352M1.85954 13.5756C2.00832 13.3539 2.51881 12.8683 2.81397 12.3545M2.05651 13.8167C2.49611 13.381 2.7546 13.205 3.14898 12.266M2.10458 13.8878C2.23746 13.5509 2.68435 12.9225 3.31434 12.4333M2.39586 13.9153C2.85711 13.778 3.09526 13.071 3.6311 12.7338M2.39226 13.9382C2.6355 13.7362 3.03731 13.3765 3.67339 12.5195M2.41473 14.0127C3.18158 13.6374 3.74454 13.2086 3.72357 12.337M2.43908 14.0342C2.96425 13.4812 3.52678 12.9741 4.10699 12.5114M2.57947 14.4718C3.32433 13.9259 3.62006 13.7298 4.50381 12.421M2.85008 14.4895C3.52285 13.5184 3.94232 12.9068 4.43767 12.3605M2.78641 14.2868C3.19344 14.0683 3.44068 13.4038 4.93299 12.1648M3.13267 14.6029C3.46432 14.0905 3.80538 13.642 4.84657 12.4761M3.00407 14.4849C4.01301 13.6077 4.91169 12.912 5.18785 12.2811M3.17618 14.7395C3.59996 14.2109 4.13201 13.4687 5.1168 12.372M3.46267 14.7833C4.36484 14.2675 4.68378 13.2129 5.6462 12.5786M3.397 14.7431C4.23655 13.885 4.89203 13.1431 5.43472 12.3263M3.7108 15.0287C4.21523 14.4661 4.88026 13.8135 5.90771 12.4332M3.85982 14.9242C4.36205 14.5034 4.88828 13.8529 5.9368 12.5625M4.0386 15.2841C4.57869 14.4747 5.11296 13.5836 6.51256 12.2893M4.12947 15.2404C4.7098 14.3775 5.54078 13.3252 6.36881 12.4503M4.52426 15.2574C5.17046 14.5291 5.64021 13.3442 6.93681 12.286M4.07621 15.3441C5.06662 14.4752 6.10957 13.3134 6.70925 12.503M15.8633 2.08837C15.933 1.85956 16.0567 1.86801 16.2445 1.69846M15.817 2.01641C15.9617 1.9005 16.1103 1.68796 16.1299 1.67742M4.5544 15.2456C5.38857 14.8061 6.36017 13.5751 7.37793 12.6268M4.40425 15.5459C5.28911 14.657 5.83646 14.0308 7.07638 12.4306M15.4984 2.68816C15.751 2.38092 15.8839 2.19971 16.2045 2.16111M15.5106 2.76438C15.8219 2.5979 15.9739 2.30625 16.3543 1.89603M4.86379 15.9649C5.37121 14.6594 5.74026 13.9164 7.81186 12.2669M4.74214 15.877C5.15721 14.9047 5.70026 14.3843 7.63238 12.3374M15.3686 3.52271C15.5504 3.41218 16.1719 2.75294 16.4422 2.40348M15.3603 3.43065C15.6342 3.31822 15.6845 2.82557 16.311 2.4367M5.12995 15.7631C5.4786 15.0897 6.15745 14.1159 7.86597 12.6266M5.04733 15.8797C5.99688 14.6903 7.15428 13.3854 7.93642 12.4166M14.9972 4.17534C15.4403 4.19128 15.9106 3.50674 16.5874 2.70075M15.1336 4.40323C15.6886 3.89451 16.1134 3.38724 16.6084 2.59679M5.39256 16.3065C6.55147 15.1326 7.36126 13.1969 8.68886 12.6034M5.33185 16.0363C6.31673 14.6937 7.15999 13.655 8.37981 12.4927M14.8953 5.07038C15.1905 4.4397 15.6457 3.87625 16.3953 2.66304M14.7658 4.9764C15.0587 4.70227 15.3791 4.16364 16.5393 2.94126M5.19946 16.3328C6.54382 14.9317 7.92381 13.635 8.69917 12.3559M5.43678 16.1868C6.26988 15.2595 6.86583 14.3634 8.68747 12.4182M14.6838 5.82143C14.9225 5.18853 15.4436 4.99962 17.0012 3.36662M14.5896 5.74438C14.9373 5.5114 15.2728 4.67524 16.8169 3.18889M5.97553 16.4285C6.62093 15.8609 7.07139 14.8451 9.24025 12.3202M5.64485 16.5373C6.63917 15.5797 7.39132 14.7117 9.33644 12.4154M14.1097 6.40856C14.9595 5.637 15.819 5.17514 16.726 3.50041M14.2326 6.58705C14.8587 5.803 15.545 5.13943 16.9634 3.60615M6.26113 16.3102C7.04354 14.7921 8.55618 13.5892 9.38163 12.5076M5.9775 16.5516C7.11391 15.404 8.25265 14.1822 9.54365 12.4958M13.7321 7.13737C14.8606 6.57075 15.6404 5.38248 16.9195 3.84411M13.8592 7.45694C14.4553 6.69804 15.1664 6.05671 17.089 3.82611M6.15103 16.5537C7.14634 15.5303 8.53325 14.014 10.1209 12.5247M6.10211 16.7791C7.29439 15.2224 8.72806 13.9547 10.1559 12.5106M13.772 8.22882C14.555 7.21989 16.0248 5.77299 17.3198 4.49937M13.713 8.19837C14.6622 7.1157 15.4057 6.54638 17.0374 4.23977M6.46287 16.9679C7.19573 15.9243 8.20722 14.9669 10.5019 12.6163M6.33935 16.8987C7.58357 15.2907 9.04667 13.9413 10.3776 12.4014M13.7124 9.03799C14.236 7.57009 15.2736 7.03748 17.0607 4.50957M13.4376 8.86597C14.5521 7.65437 15.4866 6.85272 17.2147 4.61019M6.90659 17.0414C7.91598 15.3698 9.2005 14.1181 10.991 12.1943M6.77274 17.1572C8.03108 15.8104 9.43624 14.2227 10.8581 12.468M13.3629 9.8085C14.3991 8.03208 15.2246 6.95488 17.1943 5.10407M13.3347 9.49405C14.6082 8.01884 15.967 6.35377 17.352 5.0139M7.25671 16.9878C7.98832 16.0171 8.96147 15.0518 11.3111 12.5791M6.95753 17.4081C7.98771 16.2466 8.97819 15.2024 11.2244 12.4532M12.7504 10.1831C14.2544 9.18937 15.4141 7.59183 17.3867 5.42716M12.9709 10.4372C14.7345 8.43336 16.5861 6.42909 17.3482 5.36382M6.96709 17.2765C8.00102 16.3894 9.22979 14.7499 11.8644 12.7075M7.09143 17.5254C8.27125 16.0249 9.2789 14.7914 11.5972 12.403M12.6246 11.2659C13.9421 9.61721 15.783 7.75525 17.8096 5.37001M12.8337 11.2188C14.4346 9.19252 16.0788 7.22777 17.6315 5.50078M7.72657 17.5849C8.41479 16.6723 9.54589 15.1871 12.1765 12.6364M7.53589 17.7231C8.95977 16.0201 10.3253 14.3741 11.8885 12.299M12.6678 11.8438C14.5588 9.38237 16.622 7.14273 17.8992 5.64074M12.5833 12.0203C14.1599 10.415 15.5044 8.73076 17.7321 5.87968M7.55482 17.5757C11.0429 14.1516 14.1518 10.4676 17.9844 6.10485M7.64918 17.7316C11.4647 13.8217 15.1561 9.39827 17.9134 6.223M7.73204 17.7194C10.3139 15.4482 12.3615 12.7489 17.9627 6.57403M8.14457 18.0973C11.3559 13.5705 15.0503 9.52474 17.932 6.67492M8.3132 18.42C10.2064 15.9045 12.5269 13.1359 18.1655 6.86184M8.07749 18.0318C10.5355 15.8304 12.5362 13.2905 17.8821 6.97006M8.34713 18.4342C11.0868 15.8116 13.5841 12.7071 18.0818 6.98342M8.61654 18.1891C11.4212 14.4407 14.7204 10.8698 18.1815 7.29031M8.84306 18.3473C12.1451 15.0326 15.7085 11.2534 18.0376 7.31203M8.76688 18.5508C10.8535 15.7546 12.8309 13.4673 18.2209 7.71253M8.67517 18.4194C11.3436 16.0934 13.6058 13.441 18.2237 7.8004M9.07256 18.6716C11.389 15.9055 14.0419 13.0248 18.3633 8.01557M9.36124 18.6701C11.1774 16.5025 13.2844 14.4652 18.686 8.30333M9.26445 18.7185C11.7392 15.7492 14.0949 13.0235 18.5334 8.17788M9.27848 18.7896C12.0298 16.8817 14.0489 14.248 18.2498 8.52608M9.51429 19.1349C12.4494 15.6419 15.5716 12.0565 18.5459 8.57386M9.87507 18.9506C12.7979 16.457 15.5194 13.4561 18.8809 8.89763M9.82171 19.1346C11.4545 16.9051 13.8002 14.312 18.7456 9.04273M10.0891 19.2641C12.4311 17.1797 14.3834 14.1998 18.5252 9.52472M9.83406 19.3989C12.6858 16.605 15.1396 13.6222 18.682 9.21372M9.68026 20.1473C11.6907 17.3741 14.3538 14.4697 19.0439 9.78133M9.70168 20.2015C11.9541 17.3934 14.3991 14.3332 18.8599 9.65219M9.27778 20.7498C12.5317 17.4769 15.3603 13.4328 19.3101 10.1922M9.53864 20.8407C12.9829 17.5698 15.9767 13.6822 19.1195 10.0406M8.94866 21.4527C12.4252 18.2535 15.292 14.4756 19.0383 10.3332M9.32809 21.6212C12.0381 18.5191 14.8167 15.3194 19.2341 10.1977M8.84065 22.3014C12.9441 18.6653 16.5576 14.3302 18.9643 10.4412M8.99106 22.3858C12.5501 17.9202 16.2272 13.6802 19.2756 10.6664M8.4903 23.27C11.4088 19.9138 14.102 16.7149 19.2013 10.9783M8.63316 23.2639C12.9561 18.5856 17.1148 13.6892 19.4787 10.9596M8.29154 23.9616C12.1406 19.8224 16.0607 15.7418 19.6745 11.1413M8.39223 23.8912C11.7771 20.5708 15.0582 16.7463 19.4253 11.0984M8.08178 24.8337C10.6571 22.4076 12.9837 19.6254 19.5371 11.5025M8.16969 24.6317C12.2204 20.4208 15.8519 15.9214 19.4575 11.6307M7.90875 25.6083C11.4706 21.3947 15.259 16.7949 19.8957 11.8246M7.96551 25.3332C11.756 21.2793 15.3741 17.0829 19.6318 11.9435M7.70665 25.9728C10.6456 22.4803 13.2011 19.0405 19.9542 12.2757M7.66509 26.0737C11.1639 21.9028 15.003 17.7628 19.8847 12.2086M7.36278 27.0481C11.0427 22.2983 14.3906 18.4189 19.7197 12.6048M7.46556 26.987C10.6483 22.8601 14.2842 18.7262 20.0603 12.5038M7.24566 27.7317C10.7718 23.1376 14.9351 18.8716 20.3207 12.5242M7.0947 27.7422C11.5838 22.223 16.1064 16.7064 20.434 12.4817M6.6967 28.6337C10.7385 24.3516 13.8001 20.4505 20.5439 12.4988M6.85219 28.4303C10.8939 24.0526 14.5687 19.814 20.8013 12.5915M6.81613 29.2425C10.1741 25.506 13.8254 21.9784 21.1826 12.5943M6.73003 29.1292C10.7283 24.7173 14.8716 20.0519 21.0936 12.5257M6.22371 29.8723C11.2795 24.1948 16.8407 18.0876 21.35 12.5569M6.32055 30.0644C10.5332 25.0652 14.6763 20.2914 21.6465 12.4315M6.22603 30.3737C12.0066 23.7934 17.6594 17.1753 21.7939 12.3547M6.20736 30.6712C9.43992 26.2232 13.2959 21.9457 21.8372 12.5562M7.18184 29.6939C11.3344 25.0934 15.435 19.8442 22.4955 12.3597M7.253 29.9538C12.6839 23.2422 17.9719 17.1441 22.4134 12.4308M8.3336 29.0239C13.4663 23.575 18.212 18.2283 22.7736 12.6864M8.20636 29.3021C13.337 23.5195 18.2633 17.6273 22.7192 12.6102M9.15793 28.2639C13.106 23.7324 16.9208 18.9929 23.1776 12.7372M9.30331 28.4272C14.3051 22.4459 19.7435 16.0737 23.1708 12.4997M10.3066 27.7712C14.8221 22.1962 19.4386 16.9058 23.724 12.5215M10.3436 27.82C13.5549 23.8708 17.1224 19.8112 23.6027 12.5497M11.2856 26.9811C15.0664 23.0765 18.3325 19.3769 24.2048 12.6233M11.4048 27.0263C15.534 22.2086 19.8751 17.2707 23.9771 12.5653M12.5141 26.5235C16.5783 22.1292 20.6283 17.8713 24.5794 12.705M12.2883 26.4549C16.3759 22.1475 20.3625 17.5398 24.449 12.5069M13.3798 25.8356C16.7993 21.5754 20.6882 17.5474 25.0083 12.3874M13.3079 25.5641C17.3139 21.4538 21.2527 16.8749 24.6483 12.5133M14.5865 24.866C16.5719 21.9279 18.9015 19.4529 25.1467 12.5478M14.269 24.9447C16.9944 21.7851 19.6897 18.6462 25.2103 12.5682M15.4211 24.4175C18.2778 21.1926 21.313 17.3454 25.5493 12.7508M15.4821 24.1547C18.2613 21.3358 21.0099 18.2519 25.5964 12.6238M16.209 23.6119C19.6205 19.0006 23.1563 14.8529 25.7524 12.7396M16.2777 23.6138C18.967 20.7109 21.5541 17.8707 26.0476 12.5208M16.6608 23.987C19.5168 20.4206 22.0458 17.534 26.1938 12.3674M16.4254 24.0065C19.9014 19.7794 23.2897 15.9803 26.4843 12.5749M16.9714 24.2042C19.2138 21.2081 22.199 18.1709 27.006 12.7496M16.5988 23.9836C20.6211 19.5763 24.3749 15.6186 26.805 12.6173M16.8916 24.0568C20.2597 20.7862 23.5719 17.0519 27.41 12.5192M16.9337 24.235C21.0939 20.0936 24.8096 15.798 27.0847 12.4588M17.1318 24.5243C19.2479 21.7496 22.079 18.6574 27.8198 12.7226M17.1051 24.3444C21.332 19.9108 25.4789 15.3697 27.629 12.5841M17.4634 24.822C20.4489 21.6466 23.025 18.7396 28.0389 12.4044M17.535 24.4742C20.2521 21.0077 23.3335 17.4132 27.9972 12.4802M17.991 24.8479C18.6605 23.1856 20.3302 21.3056 22.6391 19.1362M17.8206 24.7939C19.0629 23.2588 20.3075 21.8342 22.2346 19.3421M22.0934 19.5659C23.9845 17.5666 25.4789 15.6362 28.3555 12.7468M22.4329 19.3298C24.0077 17.5075 25.8777 15.6716 28.4582 12.5842M17.7208 24.7936C18.8443 23.6183 20.4425 22.5138 22.2617 19.6805M18.0965 24.8982C19.675 23.2544 20.9404 21.6304 22.514 19.6866M23.5044 18.7478C24.6175 17.5753 26.0524 15.695 28.9195 12.3393M23.3755 18.8349C25.7033 16.4251 27.6884 14.2406 28.653 12.4699M17.9675 24.9083C19.5452 23.822 19.9859 22.659 22.3345 19.8241M18.3191 25.2256C19.6665 23.85 20.7927 22.4416 22.4432 20.0066M24.562 17.9245C26.167 15.9462 28.1538 13.4575 28.9534 12.4024M24.304 18.09C26.2014 15.8565 27.8021 13.5823 29.0223 12.5742M18.6326 25.2464C19.7149 23.6193 20.8864 22.1681 22.8505 20.3709M18.5057 25.1619C19.6609 23.9726 20.7918 22.695 22.6204 20.4304M25.3988 17.1531C27.0224 15.2574 28.7605 13.3579 29.5307 12.4469M25.3834 17.3639C26.8612 15.5849 28.4546 13.9012 29.652 12.5512M18.8667 25.7707C19.5552 24.146 20.4822 23.232 22.8084 20.5206M18.7357 25.4626C19.9516 23.9596 20.9389 22.4806 22.7275 20.8926M26.368 16.6077C27.536 15.6453 28.5618 14.1139 29.6951 12.3352M26.3336 16.5675C27.353 15.3527 28.4185 14.0218 29.8755 12.4605M18.8847 25.6093C20.4073 23.6506 21.7923 22.0912 22.6778 21.3315M18.8628 25.7224C20.0273 24.44 20.829 23.7545 22.8824 21.1603M27.241 16.0896C28.3898 14.9403 29.7968 13.4731 30.0659 12.5833M27.4186 15.8872C28.2678 15.1569 29.0886 14.3805 30.1928 12.4991M19.1623 25.9639C20.7183 24.0499 21.713 22.1906 22.7705 21.4216M19.2945 25.7705C19.9424 24.5377 20.8822 23.6383 23.18 21.5476M28.1332 15.1348C29.1901 14.3621 29.8359 13.641 31.0521 12.4548M28.4202 15.1511C29.2631 14.4589 30.0026 13.3108 30.7139 12.4298M19.1526 25.7376C20.4114 24.6779 21.2703 23.7683 23.3971 21.8255M19.498 26.0503C20.1284 24.9341 21.2414 23.9433 23.0009 21.8318M29.7006 14.3934C29.7868 13.9971 30.9494 13.0359 31.0785 12.4707M29.5447 14.6855C29.9307 13.771 30.5671 13.0173 31.1475 12.6138M19.4547 26.168C20.4079 25.3324 21.7611 24.2062 23.5283 22.3693M19.7061 26.1622C21.0271 24.9955 22.2502 23.6619 23.3677 22.1331M30.2411 14.078C30.4834 13.6676 31.1353 12.9084 31.6643 12.3671M30.3588 13.834C30.904 13.4966 31.1486 13.0404 31.4715 12.3911M20.1231 26.4467C20.7059 25.3625 21.905 24.0335 23.3376 22.3644M19.9634 26.2088C21.139 24.8391 22.4945 23.4819 23.3763 22.5209M31.5529 13.023C31.5061 12.8447 31.7839 12.5736 31.8676 12.6471M31.4831 13.1687C31.5132 13.12 31.671 12.8257 32 12.491M20.031 26.4096C21.3469 24.962 22.964 23.6425 23.624 22.8509M20.1565 26.5722C21.0566 25.3016 21.8417 24.3904 23.5606 22.8679M20.3002 26.4043C21.4548 25.4157 22.4948 24.3687 23.3203 23.0688M20.4554 26.8118C21.769 25.5322 22.8796 24.199 23.5042 23.2438M20.995 26.5525C21.6978 25.9658 22.712 24.7341 24.0028 23.1164M20.8107 26.9442C21.5944 25.9405 22.5938 24.8571 23.7432 23.3099M20.9919 27.0308C22.0658 25.7781 22.9751 24.8394 23.5679 23.9853M20.9655 27.0899C21.6047 26.0522 22.3838 25.2385 23.869 23.8653M20.9566 27.1802C22.3596 26.2712 22.7215 25.2098 24.1266 23.9924M21.3279 27.3198C22.2714 26.1142 22.9252 24.9739 23.834 24.0031M21.6134 27.3388C22.0717 26.3852 22.7861 25.5429 24.1279 24.5648M21.3496 27.4626C22.2379 26.1269 23.1994 25.08 24.0173 24.4927M21.6754 27.3234C22.2206 26.8872 23.486 25.8927 24.0141 24.5173M21.6143 27.7021C22.3334 26.5163 23.4158 25.691 24.1766 24.7792M21.6859 27.5455C22.8448 26.8106 23.2144 25.899 24.1102 25.1973M21.975 27.6947C22.255 27.2917 22.9878 26.5254 24.239 25.1277M22.1488 27.6776C22.8667 26.8898 23.7987 26.22 24.1285 25.4322M22.129 27.8747C23.1557 27.0798 24.0058 26.1293 24.4888 25.2573M22.3282 28.2056C23.3825 27.3414 23.8162 26.1456 24.3637 25.6598M22.471 27.9686C23.0243 26.9853 24.0704 26.2846 24.5814 25.915M22.4532 28.4828C23.0515 27.2985 23.7645 26.3617 24.4214 26.3003M22.7049 28.3349C23.2793 27.4138 23.9891 26.9018 24.574 26.0493M22.6841 28.4585C23.7012 27.5681 24.0748 27.1926 24.8549 26.1327M23.0347 28.4484C23.7586 27.5832 24.2989 26.9227 24.5965 26.2866M23.2716 28.7791C23.8688 28.2533 24.2463 27.5224 24.563 26.6966M23.36 28.6833C23.708 28.1214 24.2055 27.6736 24.9474 26.7392M23.3878 28.7128C24.185 28.4428 24.3372 27.5443 24.9165 27.1103M23.3447 28.789C23.7136 28.4822 24.0797 28.0275 24.7808 27.1692M23.6984 28.9348C24.0313 28.5412 24.2009 27.9695 25.1451 27.677M23.7144 28.9025C24.2494 28.4887 24.8226 27.799 24.974 27.3065M23.6483 29.3092C24.3327 28.6893 24.6982 28.2621 25.0074 28.0056M23.9709 29.0547C24.344 28.6746 24.7407 28.097 25.2441 27.8465M24.2923 29.1029C24.5959 28.9326 24.5275 28.8542 25.0217 28.1257M24.2126 29.2162C24.6091 28.9753 24.7467 28.501 25.2697 28.0478M24.4927 29.2533C24.6822 29.3344 24.8526 29.0017 25.5322 28.0994M24.4817 29.4995C24.7029 29.1817 24.9892 28.7302 25.4893 28.2458M24.5423 29.3964C25.2301 29.4451 25.1298 28.9056 25.2986 28.7478M24.6837 29.6328C25.0495 29.3408 25.2129 28.9899 25.547 28.7742M25.1224 29.7383C25.0544 29.3033 25.449 29.1126 25.4336 29.1316M24.9866 29.8776C25.2103 29.5084 25.4476 29.2743 25.639 29.0296M25.3405 29.9894C25.3512 29.7927 25.4506 29.4743 25.8219 29.3046M25.2611 29.9831C25.4162 29.6616 25.614 29.4323 25.7117 29.371M25.4068 30.0688C25.4997 30.11 25.6204 29.888 25.9102 29.7371M25.4258 30.1882C25.5589 30.0265 25.6646 29.8326 25.8541 29.7174M25.6443 30.2782C25.7087 30.3014 25.8619 30.1788 25.867 30.1066M25.6821 30.3084C25.793 30.2122 25.8546 30.1128 25.9493 30.0301M25.9804 30.4657C25.9695 30.4276 26.0063 30.4373 26.0534 30.3649M25.9743 30.4973C25.9879 30.452 26.0036 30.4327 26.0802 30.3744M0 12.419V12.419ZM16.0518 1.32886V1.32886Z" stroke="#EE5F52" stroke-width="0.0378015" stroke-linecap="round"/>
</svg>
