<svg width="51" height="46" viewBox="0 0 51 46" fill="none" xmlns="http://www.w3.org/2000/svg">
<path d="M0.920158 17.7958C1.00683 17.6735 1.03645 17.6145 1.27424 17.4537M0.99668 17.7983C1.02908 17.7189 1.0845 17.6422 1.23016 17.4956M1.50563 17.9683C1.68351 17.7397 1.74642 17.5151 1.9552 17.5019M1.42479 17.9367C1.63882 17.7723 1.83103 17.6445 1.87108 17.5195M1.59086 18.4133C2.0062 18.1384 2.08414 18.0321 2.67644 17.2947M1.81745 18.2635C2.01664 18.077 2.2349 17.8376 2.51903 17.5383M1.92893 18.7318C2.14492 18.0804 2.58252 18.1338 3.24497 17.1758M2.22055 18.5207C2.44651 18.3358 2.75257 18.0622 3.2685 17.6016M2.28404 18.7733C3.1256 18.5667 3.2938 18.1049 3.40548 17.6032M2.62195 18.7398C3.01479 18.4045 3.23284 18.1215 3.72775 17.5054M2.93288 19.5495C3.54939 18.6358 3.53744 18.1632 4.81851 17.0929M2.71174 19.3496C3.08401 18.9221 3.66902 18.4618 4.52268 17.6047M3.42753 19.1917C3.48648 19.0187 4.40881 18.4767 4.93803 17.3551M3.53713 19.2669C3.76959 18.9205 4.56723 18.1617 5.02841 17.3589M3.8449 19.6436C4.53177 18.9628 4.93566 18.6878 5.55188 17.2207M3.92 19.7547C4.12763 19.2283 4.82588 18.2465 5.81025 17.4821M4.37513 19.7977C5.09582 19.5832 5.46794 18.4784 6.30519 17.9516M4.3695 19.8334C4.74955 19.5179 5.37739 18.9558 6.37126 17.6167M4.40461 19.9499C5.60281 19.3634 6.48244 18.6935 6.44968 17.3316M4.44266 19.9834C5.26323 19.1194 6.14218 18.3271 7.04877 17.604M4.66201 20.6672C5.82586 19.8142 6.28793 19.5078 7.66879 17.4629M5.08484 20.6948C6.13604 19.1776 6.79146 18.2219 7.56545 17.3682M4.98536 20.3781C5.62135 20.0367 6.00766 18.9984 8.33939 17.0626M5.52639 20.872C6.04459 20.0714 6.5775 19.3707 8.20435 17.5489M5.32544 20.6876C6.90191 19.3171 8.30611 18.23 8.73761 17.2443M5.59438 21.0855C6.25652 20.2596 7.08785 19.0999 8.62659 17.3863M6.04201 21.1539C7.45165 20.348 7.94999 18.7001 9.45378 17.7091M5.9394 21.0911C7.25119 19.7503 8.27539 18.5911 9.12334 17.3149M6.42972 21.5374C7.2179 20.6583 8.257 19.6386 9.86239 17.4819M6.66255 21.374C7.4473 20.7165 8.26953 19.7001 9.90784 17.6839M6.9419 21.9364C7.7858 20.6717 8.6206 19.2794 10.8075 17.257M7.08389 21.8682C7.99065 20.5198 9.28906 18.8756 10.5829 17.5085M7.70076 21.8947C8.71044 20.7568 9.44443 18.9052 11.4704 17.2518M7.00067 22.0301C8.54819 20.6725 10.1778 18.8572 11.1148 17.591M25.418 1.31808C25.5268 0.960566 25.7202 0.973777 26.0136 0.708846M25.3457 1.20565C25.5717 1.02454 25.8039 0.692448 25.8345 0.675984M7.74784 21.8763C9.05122 21.1895 10.5694 19.2661 12.1596 17.7843M7.51324 22.3455C8.89582 20.9566 9.75105 19.9781 11.6884 17.4777M24.8479 2.25525C25.2425 1.7752 25.4503 1.49206 25.9512 1.43175M24.8669 2.37435C25.3533 2.11423 25.5908 1.65852 26.1852 1.01755M8.23126 23.0002C9.0241 20.9603 9.60075 19.7993 12.8376 17.2221M8.04118 22.8629C8.68972 21.3436 9.53825 20.5304 12.5572 17.3323M24.645 3.55924C24.929 3.38653 25.9003 2.35648 26.3225 1.81044M24.632 3.4154C25.06 3.23972 25.1386 2.46997 26.1175 1.86235M8.64715 22.6848C9.1919 21.6326 10.2526 20.1112 12.9222 17.7841M8.51804 22.867C10.0017 21.0086 11.8102 18.9697 13.0322 17.4559M24.0647 4.57898C24.7571 4.60388 25.4918 3.53429 26.5494 2.27494M24.2779 4.93505C25.145 4.14017 25.8088 3.34757 26.5822 2.11248M9.05747 23.534C10.8683 21.6996 12.1336 18.6751 14.2079 17.7478M8.9626 23.1117C10.5015 21.0139 11.8191 19.3909 13.725 17.5748M23.9055 5.97747C24.3668 4.99204 25.078 4.11166 26.2492 2.21601M23.7031 5.83064C24.1608 5.40231 24.6614 4.5607 26.4743 2.65073M8.75574 23.575C10.8563 21.3858 13.0125 19.3596 14.224 17.3611M9.12656 23.3468C10.4283 21.898 11.3595 20.4978 14.2058 17.4584M23.5751 7.151C23.948 6.16209 24.7622 5.86691 27.196 3.31535M23.4279 7.0306C23.9712 6.66657 24.4953 5.36008 26.9079 3.03765M9.96836 23.7245C10.9768 22.8377 11.6806 21.2505 15.0695 17.3053M9.45167 23.8946C11.0053 22.3982 12.1805 21.042 15.2198 17.4541M22.678 8.06838C24.0058 6.86282 25.3488 6.14117 26.7659 3.5244M22.8701 8.34727C23.8484 7.1222 24.9207 6.08537 27.1369 3.68961M10.4146 23.5396C11.6371 21.1676 14.0006 19.2882 15.2904 17.5982M9.97144 23.9169C11.7471 22.1237 13.5264 20.2147 15.5435 17.5797M22.0879 9.20715C23.8512 8.32181 25.0697 6.46513 27.0683 4.06143M22.2865 9.70647C23.218 8.5207 24.329 7.51862 27.3332 4.03331M10.2426 23.9201C11.7978 22.3211 13.9648 19.9519 16.4455 17.6248M10.1661 24.2723C12.0291 21.84 14.2692 19.8593 16.5002 17.6029M22.1503 10.9125C23.3738 9.33609 25.6703 7.07531 27.6937 5.08528M22.0582 10.865C23.5412 9.17329 24.703 8.28372 27.2526 4.67965M10.7298 24.5674C11.8749 22.9368 13.4554 21.4408 17.0408 17.768M10.5368 24.4593C12.4809 21.9467 14.767 19.8383 16.8466 17.4321M22.0572 12.1769C22.8753 9.88328 24.4967 9.05107 27.2889 5.10122M21.6279 11.9081C23.3693 10.015 24.8293 8.76239 27.5296 5.25844M11.4231 24.6823C13.0003 22.0703 15.0074 20.1145 17.805 17.1086M11.214 24.8631C13.1802 22.7587 15.3757 20.278 17.5974 17.5363M21.5111 13.3808C23.1301 10.6051 24.4201 8.92201 27.4977 6.03011M21.4671 12.8895C23.4569 10.5844 25.58 7.98277 27.7441 5.88922M11.9702 24.5984C13.1133 23.0817 14.6339 21.5734 18.3052 17.7098M11.5027 25.2552C13.1124 23.4403 14.66 21.8088 18.1697 17.5131M20.554 13.9662C22.9041 12.4134 24.7161 9.91724 27.7983 6.53494M20.8986 14.3632C23.6542 11.2321 26.5474 8.10046 27.7382 6.43597M11.5177 25.0495C13.1332 23.6634 15.0531 21.1017 19.1698 17.9105M11.712 25.4385C13.5554 23.0939 15.1299 21.1665 18.7523 17.4347M20.3575 15.658C22.4161 13.0819 25.2925 10.1726 28.4591 6.44565M20.6842 15.5844C23.1857 12.4183 25.7547 9.3484 28.1808 6.64997M12.7044 25.5314C13.7797 24.1055 15.547 21.7848 19.6573 17.7994M12.4064 25.7474C14.6312 23.0865 16.7648 20.5146 19.2074 17.2722M20.4251 16.5609C23.3797 12.715 26.6034 9.21552 28.5991 6.86866M20.2931 16.8367C22.7564 14.3285 24.8571 11.6968 28.338 7.24201M12.436 25.517C17.8861 20.1669 22.7438 14.4106 28.7322 7.59384M12.5834 25.7607C18.5451 19.6514 24.313 12.7398 28.6213 7.77845M12.7129 25.7415C16.7471 22.1928 19.9464 17.9752 28.6984 8.32694M13.3575 26.332C18.3752 19.2589 24.1477 12.9374 28.6503 8.48457M13.621 26.8363C16.579 22.9058 20.2049 18.5799 29.0152 8.77664M13.2527 26.2296C17.0934 22.7901 20.2193 18.8215 28.5724 8.94572M13.674 26.8585C17.9547 22.7606 21.8567 17.9099 28.8844 8.9666M14.0949 26.4755C18.4772 20.6186 23.6322 15.039 29.0402 9.44611M14.4489 26.7226C19.6084 21.5434 25.1761 15.6384 28.8154 9.48005M14.3298 27.0407C17.5902 22.6716 20.6799 19.0977 29.1017 10.1058M14.1865 26.8353C18.356 23.2009 21.8907 19.0566 29.1061 10.2431M14.8075 27.2293C18.4269 22.9073 22.5721 18.4063 29.3243 10.5793M15.2585 27.227C18.0962 23.8402 21.3884 20.6569 29.8285 11.029M15.1073 27.3027C18.9741 22.6631 22.6549 18.4042 29.59 10.833M15.1292 27.4138C19.4281 24.4326 22.5831 20.3175 29.1469 11.377M15.4977 27.9533C20.0837 22.4955 24.9623 16.8933 29.6095 11.4517M16.0614 27.6653C20.6282 23.769 24.8806 19.0801 30.133 11.9576M15.978 27.9529C18.5293 24.4693 22.1944 20.4176 29.9216 12.1843M16.3958 28.1552C20.0552 24.8983 23.1057 20.2422 29.5773 12.9374M15.9973 28.3659C20.4531 24.0003 24.2872 19.3397 29.8222 12.4515M15.757 29.5352C18.8982 25.2021 23.0593 20.6639 30.3877 13.3383M15.7905 29.6198C19.3099 25.2323 23.1302 20.4506 30.1002 13.1366M15.1281 30.4765C20.2124 25.3627 24.6321 19.0438 30.8036 13.9803M15.5357 30.6186C20.9174 25.5078 25.5952 19.4335 30.5058 13.7434M14.6139 31.5748C20.046 26.5761 24.5253 20.6731 30.3789 14.2007M15.2067 31.8381C19.4411 26.9911 23.7828 21.9916 30.6849 13.9889M14.4451 32.9009C20.8568 27.2195 26.5029 20.4459 30.2633 14.3695M14.6801 33.0329C20.2411 26.0553 25.9866 19.4303 30.7497 14.7213M13.8977 34.4145C18.4578 29.1703 22.666 24.172 30.6336 15.2087M14.1209 34.4048C20.8755 27.095 27.3735 19.4444 31.0671 15.1795M13.5871 35.4949C19.6013 29.0275 25.7264 22.6516 31.373 15.4632M13.7444 35.385C19.0333 30.1968 24.1601 24.2212 30.9836 15.3963M13.2594 36.8577C17.2833 33.0668 20.9187 28.7196 31.1584 16.0276M13.3967 36.542C19.726 29.9625 25.4002 22.9321 31.0339 16.2279M12.989 38.068C18.5544 31.4842 24.4738 24.297 31.7186 16.5309M13.0777 37.6382C19.0003 31.3039 24.6536 24.7471 31.3062 16.7167M12.6732 38.6375C17.2653 33.1805 21.2583 27.8058 31.8101 17.2357M12.6083 38.7952C18.0752 32.2781 24.0738 25.8094 31.7015 17.131M12.1359 40.3177C17.8858 32.8961 23.1169 26.8345 31.4436 17.75M12.2965 40.2222C17.2696 33.7739 22.9506 27.3147 31.9758 17.5922M11.9529 41.3858C17.4625 34.2075 23.9676 27.5419 32.3827 17.6241M11.7171 41.4021C18.7312 32.7784 25.7979 24.1588 32.5597 17.5577M11.0952 42.7951C17.4105 36.1045 22.1943 30.0089 32.7314 17.5844M11.3381 42.4773C17.6533 35.6373 23.3953 29.0143 33.1337 17.7293M11.2818 43.7465C16.5286 37.9082 22.2338 32.3962 33.7293 17.7336M11.1473 43.5694C17.3946 36.6758 23.8684 29.3861 33.5903 17.6264M10.3561 44.7306C18.2559 35.8594 26.9451 26.3169 33.991 17.6751M10.5075 45.0306C17.0897 37.2194 23.5633 29.7603 34.4542 17.4792M10.3598 45.5139C19.3918 35.2323 28.2244 24.8914 34.6845 17.3592M10.3306 45.9787C15.3815 39.0288 21.4065 32.3451 34.7522 17.674M11.8532 44.4518C18.3416 37.2635 24.7487 29.0615 35.7808 17.3671M11.9644 44.8579C20.4501 34.371 28.7127 24.8427 35.6525 17.4781M13.6528 43.4049C21.6727 34.8909 29.0879 26.5367 36.2154 17.8776M13.454 43.8396C21.4707 34.8043 29.1681 25.5977 36.1303 17.7584M14.9409 42.2173C21.1097 35.137 27.0703 27.7315 36.8465 17.9569M15.168 42.4724C22.9833 33.1268 31.4808 23.1701 36.8359 17.5857M16.7356 41.4476C23.7911 32.7366 31.0044 24.4704 37.7003 17.6198M16.7935 41.5238C21.8112 35.3532 27.3854 29.01 37.5109 17.6638M18.2654 40.213C24.1729 34.112 29.2761 28.3313 38.4516 17.7788M18.4516 40.2836C24.9034 32.7559 31.6865 25.0405 38.0959 17.6884M20.1849 39.498C26.5352 32.632 32.8634 25.9789 39.0369 17.9066M19.8321 39.3908C26.219 32.6604 32.448 25.4609 38.8332 17.597M21.5375 38.4232C26.8805 31.7665 32.9569 25.4729 39.707 17.4103M21.4252 37.999C27.6846 31.5765 33.8389 24.422 39.1445 17.6071M23.423 36.9081C26.5252 32.3174 30.1651 28.4501 39.9233 17.661M22.9269 37.0311C27.1853 32.0942 31.3968 27.1897 40.0227 17.6928M24.727 36.2073C29.1907 31.1684 33.9331 25.1572 40.5524 17.9781M24.8224 35.7967C29.1649 31.3922 33.4596 26.5736 40.626 17.7798M25.9582 34.9487C31.2886 27.7434 36.8134 21.2627 40.8697 17.9607M26.0656 34.9516C30.2675 30.4158 34.3099 25.978 41.3309 17.6187M26.6641 35.5347C31.1266 29.9621 35.0782 25.4519 41.5595 17.379M26.2963 35.5652C31.7276 28.9603 37.0218 23.0242 42.0133 17.7033M27.1493 35.874C30.6532 31.1927 35.3175 26.447 42.8285 17.9763M26.5672 35.5294C32.8521 28.643 38.7173 22.459 42.5143 17.7695M27.0247 35.6437C32.2874 30.5335 37.4627 24.6986 43.4596 17.6162M27.0904 35.9223C33.5909 29.4513 39.3966 22.7394 42.9514 17.5219M27.4 36.3743C30.7065 32.0388 35.13 27.2072 44.1 17.934M27.3583 36.0932C33.9628 29.1656 40.4423 22.0702 43.8019 17.7176M27.9181 36.8393C32.5829 31.8779 36.6081 27.3356 44.4423 17.4369M28.03 36.296C32.2755 30.8796 37.0901 25.2632 44.3772 17.5553M28.7425 36.8799C29.7887 34.2826 32.3975 31.345 36.0052 27.9554M28.4763 36.7954C30.4174 34.3968 32.3621 32.171 35.3732 28.2771M35.1526 28.6268C38.1073 25.5029 40.4423 22.4865 44.9371 17.9718M35.6829 28.2579C38.1436 25.4105 41.0654 22.5418 45.0975 17.7178M28.3203 36.7949C30.0757 34.9586 32.573 33.2327 35.4155 28.8059M28.9073 36.9585C31.3737 34.39 33.351 31.8525 35.8098 28.8154M37.3572 27.3484C39.0964 25.5163 41.3385 22.5784 45.8183 17.3351M37.1557 27.4846C40.793 23.7193 43.8948 20.306 45.4018 17.5392M28.7058 36.9743C31.1709 35.2769 31.8595 33.4596 35.5292 29.0302M29.2552 37.47C31.3605 35.3206 33.1202 33.12 35.6992 29.3153M39.0097 26.0621C41.5175 22.9709 44.6219 19.0823 45.8713 17.4338M38.6066 26.3206C41.5713 22.8308 44.0724 19.2773 45.9789 17.7022M29.745 37.5025C31.4361 34.9602 33.2666 32.6927 36.3354 29.8845M29.5468 37.3705C31.3517 35.5122 33.1188 33.516 35.9759 29.9775M40.3172 24.8568C42.8541 21.8947 45.5698 18.9268 46.7734 17.5032M40.2931 25.1862C42.6022 22.4064 45.0919 19.7756 46.9628 17.6663M30.1108 38.3218C31.1865 35.7831 32.635 34.3551 36.2697 30.1184M29.9061 37.8404C31.8059 35.4919 33.3486 33.1809 36.1432 30.6997M41.8316 24.0046C43.6566 22.5008 45.2593 20.1079 47.0302 17.3287M41.7778 23.9418C43.3706 22.0437 45.0355 19.964 47.3121 17.5246M30.1389 38.0696C32.518 35.009 34.6821 32.5725 36.0656 31.3855M30.1047 38.2462C31.9242 36.2425 33.1769 35.1714 36.3853 31.118M43.1956 23.195C44.9906 21.3993 47.1891 19.1067 47.6095 17.7164M43.4732 22.8787C44.8 21.7376 46.0825 20.5245 47.8078 17.5848M30.5727 38.6236C33.0039 35.633 34.5581 32.7279 36.2104 31.5262M30.7792 38.3214C31.7917 36.3951 33.26 34.9899 36.8504 31.7231M44.5898 21.7032C46.2412 20.4959 47.2503 19.369 49.1505 17.5156M45.0381 21.7286C46.3551 20.6471 47.5107 18.8531 48.622 17.4765M30.5575 38.27C32.5244 36.6143 33.8664 35.193 37.1896 32.1573M31.0973 38.7585C32.0822 37.0146 33.8213 35.4664 36.5704 32.1672M47.0388 20.5446C47.1735 19.9254 48.99 18.4236 49.1918 17.5405M46.7951 21.0012C47.3982 19.5723 48.3927 18.3945 49.2996 17.764M31.0296 38.9426C32.5189 37.6368 34.6332 35.8772 37.3945 33.007M31.4224 38.9335C33.4864 37.1105 35.3975 35.0267 37.1437 32.6379M47.8834 20.0519C48.2619 19.4107 49.2804 18.2243 50.1071 17.3785M48.0672 19.6707C48.9191 19.1435 49.3013 18.4307 49.8057 17.4161M32.0739 39.378C32.9845 37.6839 34.8581 35.6074 37.0966 32.9994M31.8244 39.0063C33.6613 36.8661 35.7792 34.7454 37.157 33.2439M49.9329 18.4035C49.8598 18.1249 50.294 17.7013 50.4247 17.8161M49.8239 18.6312C49.871 18.555 50.1175 18.0952 50.6316 17.5722M31.93 39.32C33.9862 37.0581 36.5128 34.9964 37.5441 33.7596M32.1262 39.5741C33.5325 37.5888 34.7592 36.165 37.445 33.7862M32.3507 39.3117C34.1547 37.767 35.7797 36.1311 37.0696 34.1001M32.5931 39.9485C34.6456 37.9491 36.381 35.866 37.3569 34.3735M33.4362 39.5433C34.5344 38.6266 36.1191 36.7021 38.136 34.1744M33.1483 40.1554C34.3728 38.5871 35.9344 36.8942 37.7303 34.4767M33.4314 40.2906C35.1094 38.3333 36.5301 36.8666 37.4565 35.532M33.3902 40.383C34.3889 38.7616 35.6063 37.4902 37.9268 35.3446M33.3762 40.5241C35.5684 39.1037 36.1339 37.4453 38.3294 35.5431M33.9565 40.7422C35.4307 38.8584 36.4523 37.0767 37.8722 35.5598M34.4026 40.7719C35.1186 39.2819 36.2349 37.9658 38.3314 36.4375M33.9903 40.9653C35.3783 38.8783 36.8807 37.2425 38.1586 36.3248M34.4993 40.7479C35.3512 40.0663 37.3284 38.5124 38.1536 36.3633M34.4039 41.3395C35.5276 39.4867 37.2187 38.1971 38.4076 36.7726M34.5158 41.0948C36.3266 39.9466 36.9041 38.5222 38.3039 37.4259M34.9676 41.328C35.4051 40.6983 36.55 39.5009 38.505 37.3171M35.2391 41.3012C36.3608 40.0703 37.817 39.0237 38.3324 37.7928M35.2082 41.6092C36.8124 40.3672 38.1407 38.882 38.8953 37.5196M35.5194 42.1262C37.1667 40.776 37.8444 38.9075 38.6998 38.1484M35.7425 41.7559C36.607 40.2195 38.2417 39.1246 39.04 38.5471M35.7147 42.5593C36.6496 40.7089 37.7636 39.2452 38.79 39.1492M36.1081 42.3283C37.0055 40.8891 38.1145 40.0891 39.0285 38.757M36.0755 42.5215C37.6647 41.1302 38.2485 40.5434 39.4674 38.8874M36.6234 42.5057C37.7544 41.1538 38.5987 40.1217 39.0636 39.1278M36.9935 43.0223C37.9266 42.2007 38.5164 41.0588 39.0114 39.7685M37.1315 42.8727C37.6754 41.9946 38.4526 41.2949 39.612 39.8349M37.175 42.9187C38.4206 42.4969 38.6585 41.093 39.5637 40.4149M37.1077 43.0378C37.6841 42.5585 38.2561 41.848 39.3516 40.5069M37.6603 43.2656C38.1806 42.6506 38.4455 41.7574 39.9208 41.3004M37.6853 43.2152C38.5213 42.5686 39.4169 41.491 39.6535 40.7215M37.582 43.8506C38.6514 42.882 39.2225 42.2146 39.7057 41.8137M38.0861 43.4529C38.669 42.8591 39.2889 41.9566 40.0755 41.5652M38.5884 43.5283C39.0627 43.2621 38.9558 43.1396 39.728 42.0014M38.4637 43.7053C39.0834 43.329 39.2983 42.5879 40.1155 41.8797M38.9015 43.7633C39.1976 43.8901 39.4638 43.3702 40.5257 41.9604M38.8843 44.148C39.2299 43.6515 39.6772 42.9459 40.4586 42.1891M38.979 43.9868C40.0536 44.063 39.8969 43.2201 40.1606 42.9735M39.1998 44.3562C39.7714 43.9 40.0267 43.3517 40.5488 43.0147M39.8853 44.5212C39.7791 43.8415 40.3957 43.5435 40.3717 43.5731M39.6732 44.7388C40.0226 44.1618 40.3935 43.7961 40.6925 43.4138M40.2261 44.9135C40.2429 44.6062 40.3981 44.1087 40.9783 43.8435M40.1021 44.9037C40.3444 44.4013 40.6535 44.043 40.8061 43.9472M40.3297 45.0376C40.4748 45.1019 40.6635 44.755 41.1163 44.5192M40.3595 45.2241C40.5674 44.9714 40.7325 44.6684 41.0286 44.4885M40.7009 45.3647C40.8014 45.401 41.0407 45.2094 41.0487 45.0966M40.7599 45.4118C40.9331 45.2616 41.0294 45.1062 41.1774 44.977M41.226 45.6577C41.209 45.5982 41.2664 45.6133 41.3401 45.5002M41.2165 45.7071C41.2377 45.6362 41.2622 45.6061 41.3819 45.515M0.631592 17.4598V17.4598ZM25.7125 0.131348V0.131348Z" stroke="#EE5F52" stroke-width="0.0590649" stroke-linecap="round"/>
</svg>
